# xmcd
#
# Track frame offsets:
#	150
#	25607
#	52998
#	134788
#	149060
#	174631
#
# Disc length: 2986 seconds
#
# Revision: 1
# Processed by: cddbd v1.5.2PL0 Copyright (c) Steve Scherf et al.
# Submitted via: audiograbber 1.83.01
#
DISCID=570ba806
DTITLE=Grateful Dead - 80-09-06 State Fairgrounds, Lewiston ME
DYEAR=1900
DGENRE=
TTITLE0=Alabama Getaway
TTITLE1=Greatest Story Ever Told
TTITLE2=Sugaree
TTITLE3=Me and My Uncle
TTITLE4=Mexicali Blues
TTITLE5=Tennessee Jed
EXTD=
EXTT0=
EXTT1=
EXTT2=
EXTT3=
EXTT4=
EXTT5=
PLAYORDER=
